<?xml version="1.0" encoding="utf-8"?>
<!-- Generator: Adobe Illustrator 16.0.3, SVG Export Plug-In . SVG Version: 6.00 Build 0)  -->
<!DOCTYPE svg PUBLIC "-//W3C//DTD SVG 1.1//EN" "http://www.w3.org/Graphics/SVG/1.1/DTD/svg11.dtd">
<svg version="1.1" id="Layer_1" xmlns="http://www.w3.org/2000/svg" xmlns:xlink="http://www.w3.org/1999/xlink" x="0px" y="0px"
	 width="792px" height="612px" viewBox="0 0 792 612" enable-background="new 0 0 792 612" xml:space="preserve">
<g>
	<text transform="matrix(1 0 0 1 95.8823 395.4121)" font-family="'EvaStd-Normal'" font-size="105.2102">PEAK FAMILY</text>
	<text transform="matrix(1 0 0 1 296.4868 440.3867)" font-family="'EvaStd-Normal'" font-size="40.2223">LONDON</text>
	<g>
		<path d="M313.6,217.3c0.086,0.012,0.172,0.018,0.256,0.018c0.921,0,1.724-0.68,1.853-1.618l0.053-0.376
			c0.148-1.022-0.56-1.973-1.582-2.122c-1.024-0.147-1.973,0.561-2.123,1.582l-0.057,0.409
			C311.858,216.216,312.575,217.16,313.6,217.3z"/>
		<path d="M320.63,248.502c-0.437-0.938-1.551-1.343-2.487-0.905s-1.343,1.551-0.905,2.487l0.17,0.363
			c0.318,0.678,0.992,1.075,1.694,1.075c0.267,0,0.538-0.058,0.796-0.179c0.936-0.44,1.337-1.555,0.896-2.491L320.63,248.502z"/>
		<path d="M343.159,273.861l-0.322-0.203c-0.875-0.551-2.03-0.291-2.582,0.584c-0.552,0.873-0.291,2.029,0.583,2.582l0.347,0.217
			c0.308,0.191,0.648,0.281,0.985,0.281c0.626,0,1.238-0.314,1.593-0.885C344.307,275.561,344.037,274.406,343.159,273.861z"/>
		<path d="M436.027,229.932c-0.557-0.078-1.082,0.101-1.475,0.438c0.266-2.285,0.418-4.603,0.418-6.957
			c0-2.713-0.199-5.379-0.55-7.997c0.283,0.696,0.961,1.167,1.724,1.167c0.091,0,0.182-0.007,0.273-0.02
			c1.022-0.149,1.73-1.1,1.581-2.123l-0.095-0.633c-0.16-1.021-1.111-1.717-2.139-1.561c-0.852,0.133-1.471,0.824-1.562,1.642
			c-0.817-5.083-2.284-9.949-4.302-14.521c0.32,0.236,0.703,0.377,1.104,0.377c0.255,0,0.514-0.052,0.761-0.161
			c0.944-0.421,1.37-1.527,0.949-2.472l-0.17-0.377c-0.43-0.94-1.541-1.354-2.481-0.923c-0.639,0.292-1.026,0.9-1.079,1.555
			c-2.193-4.51-4.943-8.699-8.151-12.489c0.212,0.079,0.433,0.127,0.656,0.127c0.441,0,0.886-0.155,1.243-0.473
			c0.771-0.686,0.842-1.869,0.156-2.642l-0.271-0.302c-0.691-0.769-1.875-0.833-2.643-0.141c-0.518,0.465-0.708,1.151-0.571,1.785
			c-3.405-3.741-7.285-7.038-11.532-9.821c0.188,0.061,0.38,0.098,0.571,0.098c0.617,0,1.223-0.305,1.579-0.864
			c0.556-0.871,0.302-2.028-0.568-2.584l-0.496-0.314c-0.873-0.553-1.999-0.269-2.549,0.604c-0.459,0.729-0.326,1.661,0.234,2.271
			c-4.216-2.617-8.773-4.731-13.599-6.243c0.433-0.23,0.775-0.628,0.921-1.136c0.284-0.994-0.291-2.03-1.285-2.314l-0.397-0.112
			c-0.999-0.274-2.026,0.31-2.302,1.307c-0.139,0.502-0.059,1.013,0.183,1.432c-4.591-1.187-9.397-1.829-14.343-1.877
			c0.646-0.3,1.093-0.953,1.085-1.711c-0.007-1.028-0.844-1.855-1.87-1.855c-0.006,0-0.011,0-0.016,0l-0.41,0.005
			c-1.034,0.018-1.857,0.87-1.84,1.902c0.012,0.753,0.469,1.392,1.114,1.678c-5.093,0.112-10.027,0.862-14.732,2.178
			c0.248-0.427,0.33-0.95,0.18-1.462c-0.29-0.992-1.327-1.559-2.321-1.271l-0.395,0.118c-0.989,0.299-1.548,1.344-1.249,2.333
			c0.158,0.522,0.524,0.922,0.98,1.142c-4.502,1.502-8.766,3.522-12.721,5.997c0.227-0.55,0.188-1.199-0.161-1.735
			c-0.564-0.866-1.725-1.11-2.591-0.545l-0.34,0.224c-0.862,0.57-1.099,1.731-0.529,2.593c0.352,0.532,0.927,0.82,1.52,0.834
			c-4.215,2.89-8.035,6.311-11.38,10.155c0.256-0.706,0.074-1.525-0.525-2.048c-0.779-0.68-1.962-0.598-2.641,0.182l-0.266,0.306
			c-0.674,0.784-0.586,1.965,0.198,2.64c0.353,0.304,0.787,0.453,1.219,0.453c0.317,0,0.628-0.09,0.91-0.247
			c-3.11,3.785-5.758,7.961-7.873,12.438c-0.098-0.593-0.477-1.127-1.062-1.397c-0.938-0.433-2.05-0.023-2.483,0.915l-0.171,0.375
			c-0.424,0.942-0.003,2.051,0.939,2.475c0.25,0.111,0.51,0.165,0.767,0.165c0.354,0,0.7-0.103,0.997-0.289
			c-3.015,7.134-4.684,14.971-4.684,23.189c0,3.002,0.228,5.952,0.657,8.836c-0.157-1.008-1.095-1.708-2.106-1.565
			c-1.023,0.145-1.737,1.09-1.594,2.114l0.058,0.4c0.136,0.932,0.935,1.602,1.85,1.602c0.09,0,0.181-0.007,0.272-0.021
			c1.021-0.148,1.728-1.096,1.581-2.116c3.346,21.434,18.128,39.119,37.886,46.623l-7.014,19.777
			c-0.449,1.264,0.213,2.658,1.479,3.105c0.27,0.096,0.544,0.141,0.813,0.141c1,0,1.939-0.623,2.294-1.621l5.689-16.041l0.164,0.047
			c0.17,0.047,0.34,0.068,0.509,0.068c0.816,0,1.567-0.539,1.8-1.363c0.272-0.971-0.273-1.971-1.222-2.281l0.105-0.297
			c4.94,1.424,10.138,2.227,15.508,2.316c-0.566,0.326-0.951,0.934-0.945,1.635c0.009,1.027,0.847,1.855,1.873,1.855
			c0.006,0,0.011,0,0.016,0l0.396-0.004c1.034-0.012,1.863-0.859,1.852-1.893c-0.009-0.684-0.381-1.277-0.932-1.6
			c5.1-0.104,10.045-0.848,14.758-2.16c-0.676,0.443-1.015,1.287-0.77,2.1c0.244,0.809,0.987,1.33,1.792,1.33
			c0.178,0,0.36-0.025,0.542-0.08l0.386-0.119c0.989-0.305,1.543-1.352,1.237-2.34c-0.24-0.777-0.941-1.279-1.709-1.311
			c0.683-0.211,1.356-0.441,2.03-0.674l8.136,20.887c0.372,0.959,1.295,1.549,2.264,1.549c0.299,0,0.593-0.055,0.885-0.168
			c1.25-0.488,1.869-1.898,1.382-3.15l-8.139-20.895c2.573-1.137,5.052-2.443,7.421-3.916c-0.275,0.564-0.265,1.252,0.098,1.82
			c0.355,0.562,0.962,0.869,1.581,0.869c0.344,0,0.691-0.094,1.001-0.293l0.347-0.223c0.867-0.562,1.113-1.723,0.55-2.59
			c-0.368-0.564-0.99-0.859-1.617-0.844c3.951-2.676,7.567-5.811,10.77-9.33c-0.017,0.547,0.197,1.096,0.645,1.479
			c0.354,0.303,0.787,0.451,1.218,0.451c0.526,0,1.052-0.223,1.422-0.652l0.263-0.309c0.668-0.789,0.57-1.97-0.219-2.638
			c-0.439-0.373-0.999-0.498-1.525-0.407c3.199-3.854,5.917-8.118,8.077-12.695c-0.051,0.749,0.35,1.487,1.071,1.824
			c0.256,0.119,0.525,0.176,0.79,0.176c0.705,0,1.38-0.4,1.697-1.081l0.172-0.371c0.43-0.94,0.016-2.051-0.925-2.48
			c-0.736-0.338-1.574-0.15-2.111,0.398c1.943-4.441,3.361-9.16,4.176-14.083c0.282,0.426,0.73,0.738,1.275,0.821
			c0.095,0.015,0.188,0.021,0.282,0.021c0.909,0,1.708-0.665,1.849-1.591l0.06-0.411
			C437.765,231.022,437.052,230.076,436.027,229.932z M375.221,276.674c-4.974,0-9.783-0.701-14.354-1.98l15.174-42.788
			l16.33,41.918C386.984,275.662,381.22,276.674,375.221,276.674z M396.896,272.045l-16.916-43.431
			c2.133-2.023,2.326-5.455,0.338-7.862c-2.069-2.512-5.693-2.941-8.086-0.965c-2.396,1.969-2.662,5.607-0.593,8.12
			c0.147,0.178,0.32,0.322,0.483,0.483l-15.879,44.776c-20.023-7.662-34.284-27.069-34.284-49.753
			c0-29.368,23.893-53.261,53.261-53.261s53.261,23.893,53.261,53.261C428.481,245.063,415.488,263.725,396.896,272.045z"/>
		<path d="M329.908,262.875c-0.676-0.783-1.859-0.869-2.64-0.192c-0.782,0.676-0.868,1.858-0.191,2.639l0.264,0.305
			c0.37,0.424,0.89,0.643,1.412,0.643c0.436,0,0.874-0.152,1.229-0.461c0.779-0.68,0.86-1.861,0.182-2.641L329.908,262.875z"/>
	</g>
</g>
</svg>
