<?xml version="1.0" encoding="utf-8"?>
<!-- Generator: Adobe Illustrator 16.0.0, SVG Export Plug-In . SVG Version: 6.00 Build 0)  -->
<!DOCTYPE svg PUBLIC "-//W3C//DTD SVG 1.1//EN" "http://www.w3.org/Graphics/SVG/1.1/DTD/svg11.dtd">
<svg version="1.1" id="Layer_1" xmlns="http://www.w3.org/2000/svg" xmlns:xlink="http://www.w3.org/1999/xlink" x="0px" y="0px"
	 width="592.208px" height="253.007px" viewBox="3.914 6.11 592.208 253.007" enable-background="new 3.914 6.11 592.208 253.007"
	 xml:space="preserve">
<g>
	<g enable-background="new    ">
		<path fill="#FFFFFF" d="M4.819,205.944c0-4.186,0-14.254-0.905-21.153H4.14c4.978-0.453,14.028-0.905,21.155-0.905
			c15.725,0,26.359,6.9,26.359,20.702c0,17.987-13.236,25.794-27.943,25.794c-2.149,0-5.204-0.227-7.58-0.566v8.146
			c0,4.412,0,14.143,0.905,21.155H4.819V205.944z M16.132,191.918v30.545c2.263,0.679,4.865,1.019,7.466,1.019
			c9.729,0,16.743-5.092,16.743-17.762c0-10.182-6.109-14.594-16.63-14.594C21.336,191.126,18.395,191.353,16.132,191.918z"/>
		<path fill="#FFFFFF" d="M62.851,205.944c0-5.315,0-14.254-0.905-21.153h40.839l-0.679,9.503
			c-2.149-0.904-10.521-1.357-17.196-1.357H74.164v24.097h25.907l0.452,0.452c0,2.488-0.905,5.996-2.489,7.693h-23.87v25.793h17.648
			c5.317,0,9.729-0.453,12.331-1.244h0.453c0,3.959-1.697,7.691-4.525,9.39h-37.22V205.944z"/>
		<path fill="#FFFFFF" d="M136.948,186.035c2.828-1.472,8.598-2.149,12.67-2.149l22.513,69.913c0.679,2.149,1.244,3.507,1.244,5.317
			h-11.539l-7.806-24.775l-25.793,1.02l-7.466,21.945c-0.453,1.358-1.358,1.812-3.055,1.812h-7.466L136.948,186.035z
			 M130.839,227.894l20.929-1.019l-9.729-31.337L130.839,227.894z"/>
		<path fill="#FFFFFF" d="M183.329,259.116v-53.172c0-5.315,0-14.254-0.905-21.153h12.218v74.325H183.329L183.329,259.116z
			 M195.095,222.01v-0.452l25.341-29.865c3.846-4.412,8.032-7.807,12.557-7.807c3.959,0,5.43,1.471,5.883,2.488
			c-2.263,1.132-5.317,4.3-10.408,9.956l-21.042,23.87v0.564l28.169,35.07c1.131,1.357,1.471,2.148,1.471,3.28h-12.444
			L195.095,222.01z"/>
		<path fill="#FFFFFF" d="M309.236,194.294c-2.149-0.904-10.521-1.357-17.196-1.357h-10.747v24.549h25.566l0.453,0.453
			c0,2.375-1.019,5.883-2.375,7.578h-23.645v12.444c0,5.656,0,14.142,0.905,21.155H269.98v-53.172c0-5.315,0-14.254-0.905-21.153
			h40.839L309.236,194.294z"/>
		<path fill="#FFFFFF" d="M335.141,186.035c2.828-1.472,8.598-2.149,12.672-2.149l22.513,69.913
			c0.679,2.149,1.243,3.507,1.243,5.317h-11.539l-7.805-24.775l-25.795,1.02l-7.466,21.945c-0.452,1.358-1.358,1.812-3.055,1.812
			h-7.466L335.141,186.035z M329.032,227.894l20.929-1.019l-9.729-31.337L329.032,227.894z"/>
		<path fill="#FFFFFF" d="M379.486,259.116l4.638-63.352c0.112-0.906,0.112-1.925,0.112-2.941c0-2.829-0.227-5.883-0.564-8.032
			h14.254l21.041,61.542l23.758-61.542h12.896l4.186,74.325h-11.086l-3.168-58.715l-22.737,58.715h-8.938L393.4,200.063
			l-4.072,59.053H379.486z"/>
		<path fill="#FFFFFF" d="M475.416,259.116v-53.172c0-5.315,0-14.254-0.906-21.153h12.219v74.325H475.416L475.416,259.116z"/>
		<path fill="#FFFFFF" d="M504.602,259.116v-53.172c0-5.315,0-14.254-0.905-21.153h12.219v66.181h17.195
			c5.43,0,10.067-0.453,12.67-1.472l0.227,0.228c0,4.071-1.697,7.691-4.639,9.39L504.602,259.116L504.602,259.116z"/>
		<path fill="#FFFFFF" d="M560.938,259.116v-31.562l-20.477-37.672c-1.018-2.037-2.148-3.96-2.148-5.091h11.767l17.647,33.26
			l17.533-31.337c0.681-1.02,1.359-1.923,2.717-1.923h8.146l-23.871,41.403v32.922H560.938L560.938,259.116z"/>
	</g>
	<g>
		<g>
			<path fill="#FFFFFF" d="M229.98,67.603c0.092,0.013,0.185,0.019,0.275,0.019c0.99,0,1.853-0.731,1.992-1.74l0.057-0.404
				c0.159-1.1-0.602-2.122-1.701-2.282c-1.101-0.158-2.121,0.603-2.282,1.701l-0.062,0.44
				C228.107,66.438,228.878,67.452,229.98,67.603z"/>
		</g>
		<g>
			<path fill="#FFFFFF" d="M237.54,101.153c-0.469-1.008-1.667-1.444-2.675-0.973c-1.007,0.47-1.444,1.667-0.973,2.674l0.183,0.391
				c0.342,0.729,1.066,1.156,1.821,1.156c0.287,0,0.579-0.062,0.856-0.192c1.006-0.474,1.437-1.672,0.963-2.679L237.54,101.153z"/>
		</g>
		<g>
			<path fill="#FFFFFF" d="M261.764,128.419l-0.347-0.218c-0.94-0.593-2.183-0.312-2.776,0.628
				c-0.593,0.938-0.313,2.182,0.626,2.775l0.373,0.233c0.33,0.206,0.697,0.304,1.059,0.304c0.673,0,1.332-0.338,1.713-0.953
				C262.998,130.247,262.708,129.005,261.764,128.419z"/>
		</g>
		<g>
			<path fill="#FFFFFF" d="M361.619,81.185c-0.6-0.084-1.163,0.108-1.586,0.471c0.285-2.457,0.449-4.949,0.449-7.48
				c0-2.917-0.213-5.783-0.592-8.599c0.305,0.749,1.032,1.255,1.854,1.255c0.097,0,0.193-0.007,0.294-0.021
				c1.101-0.161,1.858-1.182,1.7-2.283l-0.104-0.68c-0.173-1.098-1.195-1.846-2.301-1.678c-0.915,0.143-1.581,0.886-1.68,1.765
				c-0.879-5.465-2.456-10.697-4.625-15.614c0.344,0.254,0.756,0.405,1.188,0.405c0.272,0,0.553-0.056,0.816-0.173
				c1.016-0.453,1.474-1.643,1.021-2.658l-0.184-0.405c-0.463-1.012-1.657-1.456-2.669-0.993c-0.688,0.314-1.104,0.968-1.16,1.672
				c-2.356-4.849-5.313-9.354-8.765-13.429c0.228,0.085,0.465,0.136,0.705,0.136c0.476,0,0.951-0.167,1.338-0.508
				c0.828-0.737,0.904-2.01,0.168-2.84l-0.293-0.325c-0.741-0.827-2.016-0.896-2.842-0.152c-0.557,0.5-0.762,1.237-0.612,1.919
				c-3.662-4.021-7.833-7.568-12.4-10.56c0.204,0.064,0.409,0.105,0.614,0.105c0.664,0,1.314-0.328,1.699-0.929
				c0.597-0.936,0.322-2.181-0.612-2.779l-0.533-0.338c-0.938-0.594-2.147-0.289-2.739,0.65c-0.494,0.783-0.352,1.786,0.252,2.442
				c-4.532-2.814-9.435-5.087-14.621-6.712c0.465-0.248,0.834-0.675,0.99-1.222c0.305-1.069-0.312-2.183-1.384-2.488l-0.427-0.121
				c-1.075-0.294-2.18,0.333-2.477,1.405c-0.147,0.541-0.062,1.089,0.197,1.54c-4.938-1.276-10.105-1.966-15.423-2.019
				c0.692-0.323,1.175-1.024,1.166-1.84C298.042,7,297.143,6.11,296.039,6.11c-0.007,0-0.012,0-0.017,0l-0.441,0.005
				c-1.112,0.019-1.997,0.935-1.978,2.045c0.012,0.81,0.504,1.497,1.198,1.804c-5.476,0.121-10.782,0.927-15.841,2.342
				c0.267-0.459,0.355-1.021,0.193-1.572c-0.312-1.066-1.427-1.676-2.496-1.366l-0.424,0.126c-1.064,0.322-1.664,1.445-1.343,2.509
				c0.17,0.562,0.563,0.991,1.054,1.227c-4.841,1.616-9.425,3.788-13.678,6.449c0.244-0.592,0.202-1.29-0.173-1.866
				c-0.607-0.931-1.854-1.194-2.786-0.586l-0.365,0.24c-0.927,0.613-1.181,1.862-0.569,2.789c0.378,0.572,0.997,0.882,1.634,0.896
				c-4.532,3.108-8.64,6.786-12.236,10.919c0.275-0.758,0.08-1.64-0.565-2.201c-0.838-0.732-2.11-0.644-2.839,0.195l-0.286,0.329
				c-0.725,0.843-0.63,2.113,0.213,2.838c0.379,0.327,0.846,0.487,1.311,0.487c0.342,0,0.675-0.096,0.979-0.265
				c-3.345,4.07-6.191,8.56-8.465,13.374c-0.105-0.638-0.513-1.212-1.143-1.503c-1.009-0.465-2.204-0.025-2.67,0.984l-0.184,0.403
				c-0.456,1.013-0.003,2.205,1.01,2.661c0.269,0.12,0.548,0.178,0.825,0.178c0.381,0,0.753-0.11,1.072-0.311
				c-3.242,7.67-5.037,16.097-5.037,24.934c0,3.228,0.245,6.4,0.707,9.501c-0.169-1.084-1.177-1.836-2.265-1.684
				c-1.1,0.155-1.868,1.172-1.714,2.273l0.062,0.431c0.146,1.001,1.005,1.722,1.988,1.722c0.097,0,0.195-0.007,0.293-0.021
				c1.097-0.16,1.857-1.179,1.7-2.276c3.598,23.046,19.492,42.062,40.736,50.131l-7.542,21.266
				c-0.482,1.358,0.229,2.858,1.591,3.338c0.29,0.104,0.585,0.151,0.875,0.151c1.075,0,2.085-0.67,2.466-1.743l6.118-17.248
				l0.177,0.051c0.183,0.051,0.365,0.074,0.547,0.074c0.878,0,1.686-0.58,1.936-1.467c0.292-1.044-0.294-2.119-1.313-2.453
				l0.113-0.318c5.312,1.531,10.901,2.394,16.674,2.49c-0.608,0.351-1.022,1.004-1.016,1.758c0.009,1.104,0.911,1.994,2.014,1.994
				c0.006,0,0.012,0,0.017,0l0.427-0.004c1.11-0.013,2.003-0.924,1.99-2.035c-0.009-0.734-0.409-1.373-1.001-1.72
				c5.482-0.11,10.801-0.911,15.867-2.321c-0.728,0.477-1.092,1.384-0.828,2.258c0.265,0.869,1.062,1.43,1.928,1.43
				c0.191,0,0.389-0.027,0.583-0.086l0.415-0.128c1.062-0.328,1.659-1.454,1.33-2.517c-0.258-0.834-1.012-1.375-1.838-1.408
				c0.734-0.228,1.459-0.476,2.184-0.725l8.748,22.459c0.4,1.031,1.393,1.665,2.434,1.665c0.321,0,0.639-0.06,0.951-0.181
				c1.344-0.525,2.01-2.042,1.486-3.389l-8.752-22.467c2.768-1.222,5.434-2.627,7.98-4.209c-0.297,0.605-0.285,1.346,0.104,1.957
				c0.383,0.604,1.033,0.935,1.699,0.935c0.371,0,0.744-0.101,1.076-0.315l0.373-0.238c0.934-0.605,1.195-1.854,0.592-2.785
				c-0.396-0.607-1.064-0.924-1.739-0.907c4.249-2.877,8.137-6.248,11.58-10.032c-0.019,0.588,0.213,1.178,0.692,1.59
				c0.381,0.325,0.848,0.485,1.31,0.485c0.565,0,1.132-0.24,1.528-0.702l0.283-0.332c0.717-0.848,0.611-2.118-0.234-2.836
				c-0.475-0.401-1.075-0.536-1.641-0.438c3.438-4.145,6.36-8.729,8.685-13.65c-0.056,0.805,0.377,1.599,1.151,1.961
				c0.273,0.128,0.564,0.189,0.851,0.189c0.758,0,1.483-0.431,1.825-1.163l0.185-0.399c0.461-1.011,0.017-2.205-0.995-2.667
				c-0.791-0.364-1.691-0.162-2.27,0.428c2.09-4.775,3.613-9.849,4.49-15.143c0.303,0.458,0.785,0.793,1.371,0.883
				c0.102,0.016,0.2,0.023,0.303,0.023c0.978,0,1.838-0.715,1.988-1.71l0.062-0.442C363.486,82.357,362.721,81.34,361.619,81.185z
				 M296.237,131.442c-5.348,0-10.52-0.754-15.434-2.129l16.315-46.006l17.559,45.072
				C308.886,130.354,302.688,131.442,296.237,131.442z M319.544,126.467l-18.188-46.699c2.293-2.176,2.502-5.865,0.362-8.454
				c-2.225-2.701-6.121-3.163-8.693-1.037c-2.577,2.117-2.862,6.029-0.637,8.73c0.159,0.191,0.344,0.347,0.52,0.52l-17.074,48.145
				c-21.53-8.238-36.864-29.105-36.864-53.497c0-31.578,25.69-57.269,57.268-57.269c31.579,0,57.269,25.69,57.269,57.269
				C353.506,97.455,339.534,117.521,319.544,126.467z"/>
		</g>
		<g>
			<path fill="#FFFFFF" d="M247.516,116.606c-0.727-0.841-2-0.934-2.838-0.206c-0.841,0.728-0.933,1.998-0.206,2.838l0.283,0.328
				c0.398,0.456,0.957,0.69,1.519,0.69c0.469,0,0.94-0.164,1.321-0.496c0.838-0.73,0.925-2.001,0.196-2.839L247.516,116.606z"/>
		</g>
	</g>
</g>
</svg>
